# xmcd
#
# Track frame offsets: 
#        150
#        21324
#        36095
#        54721
#        77654
#        95060
#        116106
#        135839
#        150256
#        175918
#
# Disc length: 2694 seconds
#
# Revision: 0
# Processed by: cddbd v1.5.2PL0 Copyright (c) Steve Scherf et al.
# Submitted via: ExactAudioCopyFreeDBPlugin 1.0
#
DISCID=780a840a
DTITLE=Monica Heldal - Boy From The North
DYEAR=2013
DGENRE=Blues
TTITLE0=Boy From The North
TTITLE1=Conman Coming
TTITLE2=Silly Willy
TTITLE3=Fightin' Son
TTITLE4=Follow You Anywhere
TTITLE5=Tape 03
TTITLE6=I Don't Mind
TTITLE7=Die For You
TTITLE8=In Flight
TTITLE9=The Road Not Taken
EXTD=
EXTT0=
EXTT1=
EXTT2=
EXTT3=
EXTT4=
EXTT5=
EXTT6=
EXTT7=
EXTT8=
EXTT9=
PLAYORDER=
